<svg xmlns="http://www.w3.org/2000/svg" width="33.424" height="29.067" viewBox="0 0 33.424 29.067">
  <g id="Group_2603" data-name="Group 2603" transform="translate(-509.52 -1094.264)">
    <path id="Path_3056" data-name="Path 3056" d="M516.128,1105l24.242,0h0a1.261,1.261,0,0,1,1.26,1.26v1.96H514.864v-1.959A1.264,1.264,0,0,1,516.128,1105Zm19.379-10.731H535.5a2.569,2.569,0,0,0-.657.086l-23.416,6.275a2.58,2.58,0,0,0-1.819,3.158l1.641,6.123a.657.657,0,0,0,1.289-.176h0a.654.654,0,0,0-.021-.166l-1.641-6.124a1.267,1.267,0,0,1,.9-1.549l23.407-6.271a1.265,1.265,0,0,1,1.55.892h0l1.477,5.512a.656.656,0,0,0,1.293-.162h0a.64.64,0,0,0-.021-.166l-1.479-5.52A2.582,2.582,0,0,0,535.507,1094.264Zm-2.014,20.689h0a2.579,2.579,0,1,0,.663,5.073h0a.658.658,0,0,0,.489-.635h0a.658.658,0,0,0-.863-.624h0a1.324,1.324,0,0,1-.287.032,1.267,1.267,0,1,1,1.267-1.267v.017a2.577,2.577,0,1,0,1.839-2.489h0a.656.656,0,0,0-.446.622h0a.659.659,0,0,0,.83.634h0a1.267,1.267,0,1,1-.91,1.23v-.014A2.58,2.58,0,0,0,533.493,1114.953Zm-16.263-.189a.656.656,0,0,0-.654.656v4.225a.656.656,0,0,0,.656.656h5.755a.657.657,0,0,0,.656-.656v-4.224a.657.657,0,0,0-.656-.657Zm24.4-1.54h0v7.529h0a1.267,1.267,0,0,1-1.267,1.263H516.131a1.267,1.267,0,0,1-1.267-1.264v-7.528Zm-1.262-9.544H516.126a2.579,2.579,0,0,0-2.575,2.579v14.49a2.58,2.58,0,0,0,2.575,2.58h24.243a2.581,2.581,0,0,0,2.575-2.581v-14.49A2.58,2.58,0,0,0,540.369,1103.68Z" transform="translate(0 0)" fill="#fff"/>
  </g>
</svg>
