<svg id="Group_2306" data-name="Group 2306" xmlns="http://www.w3.org/2000/svg" width="18" height="18" viewBox="0 0 18 18">
  <path id="Path_2939" data-name="Path 2939" d="M21.362,13.424a.737.737,0,0,1,.028,1.042l-4.828,5.093a1.847,1.847,0,0,1-1.337.575h-.045a1.847,1.847,0,0,1-1.352-.641l-2.081-2.417a.737.737,0,1,1,1.117-.962l2.081,2.418a.369.369,0,0,0,.547.013l4.828-5.093a.737.737,0,0,1,1.042-.027Zm4.218.79v4.733a6.6,6.6,0,0,1-4.169,6.159h0l-.04.018c-.02.008-.041.015-.062.021a6.56,6.56,0,0,1-2.359.435H14.214A6.642,6.642,0,0,1,7.58,18.946V14.214A6.642,6.642,0,0,1,14.214,7.58h4.732a6.642,6.642,0,0,1,6.634,6.634Zm-1.474,0a5.165,5.165,0,0,0-5.16-5.16H14.214a5.165,5.165,0,0,0-5.16,5.16V14.5a2.211,2.211,0,0,1,1.474,2.082v2a5.165,5.165,0,0,0,5.16,5.16H20.42c.151,0,.32-.01.5-.026a5.134,5.134,0,0,0,3.182-4.766Z" transform="translate(-7.58 -7.58)" fill="#fff"/>
</svg>
