<svg xmlns="http://www.w3.org/2000/svg" width="54.837" height="42.104" viewBox="0 0 54.837 42.104">
  <g id="noun-cvv-2628960" transform="translate(-30 -82.476)">
    <path id="Path_3084" data-name="Path 3084" d="M34.368,117.646h21.15a12.856,12.856,0,0,0,22.821,0H80.47a4.372,4.372,0,0,0,4.368-4.368V86.844a4.372,4.372,0,0,0-4.368-4.368h-46.1A4.372,4.372,0,0,0,30,86.844v26.436A4.372,4.372,0,0,0,34.368,117.646Zm5.581-6.545v-4.61H55.18a12.765,12.765,0,0,0-1.1,4.61Zm36.984,6.088H56.924a11.383,11.383,0,0,1,.584-11.889H76.349a11.383,11.383,0,0,1,.584,11.889ZM58.688,103.844a11.387,11.387,0,0,1,16.481,0Zm8.24,19.28a11.392,11.392,0,0,1-9.054-4.478H75.982A11.392,11.392,0,0,1,66.928,123.124Zm13.542-6.934H78.986a12.857,12.857,0,0,0-22.4-12.111.722.722,0,0,0-.1.137q-.287.4-.544.818H39.22a.728.728,0,0,0-.728.728v6.066a.728.728,0,0,0,.728.728H54.1a12.772,12.772,0,0,0,.774,3.633h-20.5a2.915,2.915,0,0,1-2.912-2.912V95.994H83.381v17.285A2.915,2.915,0,0,1,80.47,116.191ZM31.456,94.538V90.375H83.381v4.164Zm2.912-10.606h46.1a2.915,2.915,0,0,1,2.912,2.912v2.075H31.456V86.844a2.915,2.915,0,0,1,2.912-2.912Z"/>
    <path id="Path_3085" data-name="Path 3085" d="M262.8,291.225a.946.946,0,0,1,1.075,1.022c.008.231.148.506.77.506.476,0,.771-.127.771-.759,0-1.277-1.069-2.135-2.659-2.135a2.341,2.341,0,0,0-2.583,2.561v3.046a2.336,2.336,0,0,0,2.572,2.561c1.6,0,2.67-.893,2.67-2.223,0-.632-.3-.759-.781-.759-.6,0-.744.274-.759.5-.028.388-.079,1.112-1.053,1.112-.735,0-1.108-.4-1.108-1.195V292.42C261.715,291.627,262.08,291.225,262.8,291.225Z" transform="translate(-202.249 -182.223)"/>
    <path id="Path_3086" data-name="Path 3086" d="M310.961,289.856c-.374,0-.5.179-.539.328l-1.6,5.71-1.612-5.709c-.039-.15-.165-.329-.539-.329-.4,0-.956.247-.956.65a.577.577,0,0,0,.023.121l.06-.012-.059.015,2.109,6.872a.95.95,0,0,0,.975.522c.4,0,.859-.138.975-.523l2.1-6.871.007-.025a.385.385,0,0,0,.017-.1C311.917,290.109,311.351,289.856,310.961,289.856Z" transform="translate(-242.264 -182.219)"/>
    <path id="Path_3087" data-name="Path 3087" d="M362.711,289.856c-.374,0-.5.179-.539.328l-1.6,5.71-1.612-5.709c-.039-.15-.165-.329-.539-.329-.4,0-.956.247-.956.65a.573.573,0,0,0,.023.121l.06-.012-.059.015L359.6,297.5a.95.95,0,0,0,.975.522c.4,0,.859-.138.975-.523l2.1-6.87.007-.025a.389.389,0,0,0,.017-.1C363.667,290.109,363.1,289.856,362.711,289.856Z" transform="translate(-287.736 -182.219)"/>
  </g>
</svg>
