<svg xmlns="http://www.w3.org/2000/svg" width="173.948" height="158.807" viewBox="0 0 173.948 158.807">
  <g id="Group_2620" data-name="Group 2620" transform="translate(-960 -478.096)">
    <path id="Path_3094" data-name="Path 3094" d="M274.5,269A45.5,45.5,0,1,0,229,223.5,45.5,45.5,0,0,0,274.5,269Z" transform="translate(771.88 300.096)" fill="rgba(215,0,0,0.3)"/>
    <path id="Path_3095" data-name="Path 3095" d="M284.071,267.927q1.309-.254,2.6-.584a45.416,45.416,0,0,0,4.312-1.441q2.121-.82,4.151-1.85a45.5,45.5,0,0,0,3.948-2.264q1.912-1.23,3.7-2.646t3.421-3.007a45.525,45.525,0,0,0,10.207-14.913q.886-2.1,1.562-4.273.576-1.9.986-3.852L291.92,206.066a24.646,24.646,0,1,0-34.849,34.86l27,27Z" transform="translate(771.88 300.096)" fill="#d70000"/>
    <path id="Path_3096" data-name="Path 3096" d="M251.592,297.2v3.168h-6.72v3.984H251.4v3.168h-6.528V314H241.56V297.2Zm11.389,6.216V302h3.1v12h-3.1v-1.416a4.712,4.712,0,0,1-3.912,1.752,5.491,5.491,0,0,1-4.128-1.824,6.794,6.794,0,0,1,0-9,5.459,5.459,0,0,1,4.128-1.848A4.712,4.712,0,0,1,262.981,303.416Zm-5.712,7.032a3.484,3.484,0,0,0,4.752,0,3.316,3.316,0,0,0,.96-2.448,3.236,3.236,0,0,0-.96-2.424,3.42,3.42,0,0,0-4.752,0,3.28,3.28,0,0,0-.936,2.424A3.361,3.361,0,0,0,257.269,310.448Zm13.152-9.888a1.9,1.9,0,0,1-1.344-3.24,1.842,1.842,0,0,1,1.344-.576,1.791,1.791,0,0,1,1.344.576,1.9,1.9,0,0,1-1.344,3.24Zm1.56,13.44h-3.1V302h3.1Zm5.929,0h-3.1V296.48h3.1Zm14.5-4.728H283.36q.6,2.256,3.384,2.256a3.166,3.166,0,0,0,2.688-1.2l2.5,1.44a5.952,5.952,0,0,1-5.232,2.568,6.456,6.456,0,0,1-4.776-1.8,6.15,6.15,0,0,1-1.8-4.536,6.215,6.215,0,0,1,1.776-4.512,6.038,6.038,0,0,1,4.56-1.824,5.636,5.636,0,0,1,4.344,1.824A6.309,6.309,0,0,1,292.528,308,8.532,8.532,0,0,1,292.408,309.272Zm-9.1-2.4h6.12a2.936,2.936,0,0,0-2.976-2.424,3.216,3.216,0,0,0-2.064.648A2.985,2.985,0,0,0,283.312,306.872Zm20.38-3.456V297.2h3.1V314h-3.1v-1.416a4.644,4.644,0,0,1-3.888,1.752,5.517,5.517,0,0,1-4.152-1.824,6.794,6.794,0,0,1,0-9,5.484,5.484,0,0,1,4.152-1.848A4.644,4.644,0,0,1,303.692,303.416Zm-5.712,7.032a3.353,3.353,0,0,0,2.4.936,3.219,3.219,0,0,0,2.376-.936,3.361,3.361,0,0,0,.936-2.448,3.28,3.28,0,0,0-.936-2.424,3.177,3.177,0,0,0-2.376-.96A3.244,3.244,0,0,0,297.044,308,3.361,3.361,0,0,0,297.98,310.448Z" transform="translate(771.88 300.096)" fill="#222"/>
    <path id="Path_3097" data-name="Path 3097" d="M188.12,324.2h3.5a3.08,3.08,0,1,1,0,6.16H189.1V334h-.98Zm.98,5.236h2.52a2.005,2.005,0,0,0,1.5-.6,2.289,2.289,0,0,0,0-3.094,1.979,1.979,0,0,0-1.5-.616H189.1Zm12.6-1.064V327h.924v7H201.7v-1.372a3.132,3.132,0,0,1-2.828,1.54,3.5,3.5,0,0,1-2.562-1.064,3.754,3.754,0,0,1,0-5.208,3.5,3.5,0,0,1,2.562-1.064A3.132,3.132,0,0,1,201.7,328.372Zm-4.718,4.1a2.806,2.806,0,0,0,3.92,0,2.743,2.743,0,0,0,.8-1.974,2.758,2.758,0,1,0-5.516,0A2.743,2.743,0,0,0,196.979,332.474Zm10.371.392L209.618,327h.98l-3,7.644a3.7,3.7,0,0,1-1.176,1.638,2.294,2.294,0,0,1-1.652.518v-.868q1.26.154,1.918-1.456l.182-.434L203.738,327h.98Zm11.826-6.034a2.494,2.494,0,0,1,1.9.756,2.855,2.855,0,0,1,.714,2.044V334h-.924v-4.368a2,2,0,0,0-.462-1.4,1.607,1.607,0,0,0-1.246-.5,1.787,1.787,0,0,0-1.428.6,2.686,2.686,0,0,0-.518,1.792V334h-.924v-4.368a2.041,2.041,0,0,0-.434-1.4,1.5,1.5,0,0,0-1.2-.5,1.9,1.9,0,0,0-1.456.616,2.557,2.557,0,0,0-.56,1.778V334h-.924v-7h.924v1.022a2.4,2.4,0,0,1,2.142-1.19,2.156,2.156,0,0,1,2.128,1.274A2.47,2.47,0,0,1,219.176,326.832Zm7.64,0a3.122,3.122,0,0,1,2.506,1.106,3.779,3.779,0,0,1,.966,2.59c0,.047-.01.191-.028.434h-6.146a2.536,2.536,0,0,0,.9,1.68,2.852,2.852,0,0,0,1.89.63,2.362,2.362,0,0,0,2.254-1.19l.812.476a3.263,3.263,0,0,1-1.274,1.19,3.818,3.818,0,0,1-1.806.42,3.633,3.633,0,0,1-2.688-1.036,3.863,3.863,0,0,1-.014-5.25A3.51,3.51,0,0,1,226.816,326.832Zm0,.9a2.7,2.7,0,0,0-1.834.644,2.639,2.639,0,0,0-.868,1.694h5.222a2.653,2.653,0,0,0-.854-1.722A2.506,2.506,0,0,0,226.816,327.728Zm8.217-.9a2.623,2.623,0,0,1,2,.784,2.878,2.878,0,0,1,.742,2.086V334h-.924v-4.3a2,2,0,0,0-.5-1.456,1.835,1.835,0,0,0-1.4-.518,2.171,2.171,0,0,0-1.666.658,2.8,2.8,0,0,0-.6,1.946V334h-.924v-7h.924v1.092A2.589,2.589,0,0,1,235.033,326.832Zm8.241.168v.9h-2.016v4.242a1.233,1.233,0,0,0,.224.826.918.918,0,0,0,.672.252q.448,0,1.12-.028V334a3.45,3.45,0,0,1-2.226-.21,1.8,1.8,0,0,1-.714-1.652V327.9h-1.47V327h1.47v-1.68l.924-.28V327Zm8.54-2.968v.9a2.026,2.026,0,0,0-1.526.35,1.841,1.841,0,0,0-.49,1.442V327h2.016v.9H249.8V334h-.924v-6.1h-1.19V327h1.19v-.28a2.707,2.707,0,0,1,.756-2.086A2.825,2.825,0,0,1,251.814,324.032Zm6.581,4.34V327h.924v7h-.924v-1.372a3.133,3.133,0,0,1-2.828,1.54,3.493,3.493,0,0,1-2.562-1.064,3.754,3.754,0,0,1,0-5.208,3.493,3.493,0,0,1,2.562-1.064A3.133,3.133,0,0,1,258.395,328.372Zm-4.718,4.1a2.806,2.806,0,0,0,3.92,0,2.743,2.743,0,0,0,.8-1.974,2.758,2.758,0,1,0-5.516,0A2.743,2.743,0,0,0,253.677,332.474Zm8.732-7.63a.669.669,0,1,1-.2-.476A.647.647,0,0,1,262.409,324.844ZM262.2,334h-.924v-7h.924Zm2.885,0h-.924V323.78h.924Zm5.194-7.168a3.119,3.119,0,0,1,2.506,1.106,3.779,3.779,0,0,1,.966,2.59c0,.047-.009.191-.028.434h-6.146a2.54,2.54,0,0,0,.9,1.68,2.852,2.852,0,0,0,1.89.63,2.361,2.361,0,0,0,2.254-1.19l.812.476a3.256,3.256,0,0,1-1.274,1.19,3.818,3.818,0,0,1-1.806.42,3.636,3.636,0,0,1-2.688-1.036,3.863,3.863,0,0,1-.014-5.25A3.513,3.513,0,0,1,270.278,326.832Zm0,.9a2.7,2.7,0,0,0-1.834.644,2.648,2.648,0,0,0-.868,1.694H272.8a2.644,2.644,0,0,0-.854-1.722A2.5,2.5,0,0,0,270.278,327.728Zm10.962.644V324.2h.924V334h-.924v-1.372a3.132,3.132,0,0,1-2.828,1.54,3.5,3.5,0,0,1-2.562-1.064,3.754,3.754,0,0,1,0-5.208,3.5,3.5,0,0,1,2.562-1.064A3.132,3.132,0,0,1,281.24,328.372Zm-4.718,4.1a2.806,2.806,0,0,0,3.92,0,2.743,2.743,0,0,0,.8-1.974,2.758,2.758,0,1,0-5.516,0A2.743,2.743,0,0,0,276.522,332.474Zm14.851-5.642a3.449,3.449,0,0,1,2.548,1.064,3.718,3.718,0,0,1,0,5.208,3.449,3.449,0,0,1-2.548,1.064,3.132,3.132,0,0,1-2.828-1.54V336.8h-.924V327h.924v1.372A3.132,3.132,0,0,1,291.373,326.832Zm-2.03,5.642a2.806,2.806,0,0,0,3.92,0,2.743,2.743,0,0,0,.8-1.974,2.758,2.758,0,1,0-5.516,0A2.743,2.743,0,0,0,289.343,332.474Zm8.1,1.526h-.924V323.78h.924Zm5.2-7.168a3.122,3.122,0,0,1,2.506,1.106,3.779,3.779,0,0,1,.966,2.59c0,.047-.01.191-.028.434h-6.146a2.536,2.536,0,0,0,.9,1.68,2.852,2.852,0,0,0,1.89.63,2.362,2.362,0,0,0,2.254-1.19l.812.476a3.263,3.263,0,0,1-1.274,1.19,3.818,3.818,0,0,1-1.806.42,3.633,3.633,0,0,1-2.688-1.036,3.863,3.863,0,0,1-.014-5.25A3.51,3.51,0,0,1,302.64,326.832Zm0,.9a2.7,2.7,0,0,0-1.834.644,2.639,2.639,0,0,0-.868,1.694h5.222a2.653,2.653,0,0,0-.854-1.722A2.506,2.506,0,0,0,302.64,327.728Zm10.962.644V327h.924v7H313.6v-1.372a3.133,3.133,0,0,1-2.828,1.54,3.493,3.493,0,0,1-2.562-1.064,3.754,3.754,0,0,1,0-5.208,3.493,3.493,0,0,1,2.562-1.064A3.133,3.133,0,0,1,313.6,328.372Zm-4.718,4.1a2.806,2.806,0,0,0,3.92,0,2.743,2.743,0,0,0,.8-1.974,2.758,2.758,0,1,0-5.516,0A2.743,2.743,0,0,0,308.884,332.474Zm8.326-3.64q0,.811,1.442,1.19.406.1.532.14t.49.154a2.546,2.546,0,0,1,.518.2q.155.084.42.266a1.168,1.168,0,0,1,.378.35,1.984,1.984,0,0,1,.21.448,1.655,1.655,0,0,1,.1.574,1.765,1.765,0,0,1-.714,1.456,2.791,2.791,0,0,1-1.82.56,3.2,3.2,0,0,1-1.694-.434,2.458,2.458,0,0,1-1.008-1.176l.784-.462a1.685,1.685,0,0,0,.7.868,2.34,2.34,0,0,0,1.218.308,2.162,2.162,0,0,0,1.162-.28.925.925,0,0,0,.448-.84q0-.812-1.442-1.19l-.532-.126q-.126-.042-.5-.154a3.773,3.773,0,0,1-.518-.21c-.093-.056-.229-.14-.406-.252a1.4,1.4,0,0,1-.378-.35,2.481,2.481,0,0,1-.21-.448,1.778,1.778,0,0,1-.1-.588,1.8,1.8,0,0,1,.672-1.428,2.626,2.626,0,0,1,1.722-.574,2.876,2.876,0,0,1,1.484.378,2.283,2.283,0,0,1,.966,1.05l-.77.448a1.613,1.613,0,0,0-1.68-.98,1.787,1.787,0,0,0-1.05.294A.938.938,0,0,0,317.21,328.834Zm8.658-2a3.119,3.119,0,0,1,2.506,1.106,3.779,3.779,0,0,1,.966,2.59c0,.047-.009.191-.028.434h-6.146a2.54,2.54,0,0,0,.9,1.68,2.852,2.852,0,0,0,1.89.63,2.361,2.361,0,0,0,2.254-1.19l.812.476a3.256,3.256,0,0,1-1.274,1.19,3.818,3.818,0,0,1-1.806.42,3.636,3.636,0,0,1-2.688-1.036,3.863,3.863,0,0,1-.014-5.25A3.513,3.513,0,0,1,325.868,326.832Zm0,.9a2.7,2.7,0,0,0-1.834.644,2.648,2.648,0,0,0-.868,1.694h5.222a2.644,2.644,0,0,0-.854-1.722A2.5,2.5,0,0,0,325.868,327.728Zm9.366-.728v1.162a2.276,2.276,0,0,1,2.212-1.274v.9a2.2,2.2,0,0,0-1.61.588,2.294,2.294,0,0,0-.6,1.736V334h-.924v-7Zm6.289-.168a3.122,3.122,0,0,1,2.506,1.106,3.779,3.779,0,0,1,.966,2.59c0,.047-.01.191-.028.434h-6.146a2.536,2.536,0,0,0,.9,1.68,2.852,2.852,0,0,0,1.89.63,2.362,2.362,0,0,0,2.254-1.19l.812.476a3.263,3.263,0,0,1-1.274,1.19,3.818,3.818,0,0,1-1.806.42,3.633,3.633,0,0,1-2.688-1.036,3.863,3.863,0,0,1-.014-5.25A3.51,3.51,0,0,1,341.523,326.832Zm0,.9a2.7,2.7,0,0,0-1.834.644,2.639,2.639,0,0,0-.868,1.694h5.222a2.653,2.653,0,0,0-.854-1.722A2.506,2.506,0,0,0,341.523,327.728Zm8.446-.728v.9h-2.016v4.242a1.233,1.233,0,0,0,.224.826.922.922,0,0,0,.672.252q.449,0,1.12-.028V334a3.452,3.452,0,0,1-2.226-.21,1.8,1.8,0,0,1-.714-1.652V327.9h-1.47V327h1.47v-1.68l.924-.28V327Zm2.464,0v1.162a2.277,2.277,0,0,1,2.212-1.274v.9a2.206,2.206,0,0,0-1.61.588,2.294,2.294,0,0,0-.6,1.736V334h-.924v-7Zm6.387,5.866L361.088,327h.98l-3,7.644a3.7,3.7,0,0,1-1.176,1.638,2.292,2.292,0,0,1-1.652.518v-.868q1.26.154,1.918-1.456l.182-.434L355.208,327h.98Z" transform="translate(771.88 300.096)" fill="rgba(34,34,34,0.8)"/>
    <g id="Group_2618" data-name="Group 2618" transform="translate(771.88 300.096)">
      <path id="Path_3100" data-name="Path 3100" d="M264.862,236.268l9.8-9.8,9.8,9.8,3.81-3.81-9.8-9.8,9.8-9.8-3.81-3.81-9.8,9.8-9.8-9.8-3.811,3.81,9.8,9.8-9.8,9.8Zm9.8,13.609a26.489,26.489,0,0,1-10.615-2.145,27.156,27.156,0,0,1-14.457-14.457,27.335,27.335,0,0,1,0-21.229,27.172,27.172,0,0,1,14.457-14.461,27.37,27.37,0,0,1,21.229,0,27.17,27.17,0,0,1,14.458,14.461,27.347,27.347,0,0,1,0,21.229,27.153,27.153,0,0,1-14.458,14.457A26.48,26.48,0,0,1,274.66,249.877Z" fill="#fff"/>
    </g>
  </g>
</svg>
