<svg xmlns="http://www.w3.org/2000/svg" width="18" height="18" viewBox="0 0 18 18">
  <path id="Path_2938" data-name="Path 2938" d="M10,1a9,9,0,1,0,9,9A9.01,9.01,0,0,0,10,1Zm3.788,12.982a18.183,18.183,0,0,0,.4-3.382h3.592a7.746,7.746,0,0,1-1.518,4.045,19.175,19.175,0,0,0-2.469-.663Zm-10.046.663A7.741,7.741,0,0,1,2.225,10.6H5.816a18.285,18.285,0,0,0,.4,3.382,19.305,19.305,0,0,0-2.47.662ZM6.212,6.022a18.245,18.245,0,0,0-.4,3.378H2.225A7.737,7.737,0,0,1,3.743,5.356a19.339,19.339,0,0,0,2.469.666Zm1.184.2A19.406,19.406,0,0,0,10,6.4a19.406,19.406,0,0,0,2.6-.175A16.929,16.929,0,0,1,12.987,9.4H7.013A16.929,16.929,0,0,1,7.4,6.225ZM7.013,10.6h5.974a16.968,16.968,0,0,1-.383,3.18,19.5,19.5,0,0,0-5.207,0,16.875,16.875,0,0,1-.383-3.18Zm7.171-1.2a18.245,18.245,0,0,0-.4-3.378,19.216,19.216,0,0,0,2.469-.667A7.741,7.741,0,0,1,17.775,9.4Zm1.205-5.023a18.1,18.1,0,0,1-1.9.479A8.811,8.811,0,0,0,12.446,2.6,7.814,7.814,0,0,1,15.389,4.377ZM10,2.2c.818,0,1.688,1.068,2.279,2.85a18.283,18.283,0,0,1-4.559,0C8.312,3.269,9.182,2.2,10,2.2ZM6.515,4.856a18.055,18.055,0,0,1-1.9-.479A7.817,7.817,0,0,1,7.553,2.6,8.807,8.807,0,0,0,6.515,4.855Zm-1.9,10.768a18.079,18.079,0,0,1,1.9-.478A8.8,8.8,0,0,0,7.551,17.4a7.819,7.819,0,0,1-2.94-1.777ZM10,17.8c-.818,0-1.688-1.068-2.279-2.849a18.283,18.283,0,0,1,4.559,0C11.688,16.732,10.818,17.8,10,17.8Zm3.486-2.656a18.052,18.052,0,0,1,1.9.478A7.823,7.823,0,0,1,12.449,17.4,8.8,8.8,0,0,0,13.486,15.144Z" transform="translate(-1 -1)" fill="#fff"/>
</svg>
