<svg xmlns="http://www.w3.org/2000/svg" width="37.997" height="36.296" viewBox="0 0 37.997 36.296">
  <g id="Group_2607" data-name="Group 2607" transform="translate(-6 -7.075)">
    <g id="Group_2607-2" data-name="Group 2607" transform="translate(6 7.075)">
      <path id="Path_3068" data-name="Path 3068" d="M30.373,8.651l1.892,4a3.14,3.14,0,0,0,2.446,1.778l4.375.551-.814,4.347a3.141,3.141,0,0,0,.933,2.871l3.213,3.02L39.2,28.252a3.141,3.141,0,0,0-.933,2.871l.825,4.332-4.386.567A3.14,3.14,0,0,0,32.265,37.8l-1.874,3.989-3.88-2.121a3.153,3.153,0,0,0-3.025,0l-3.862,2.127-1.892-4a3.14,3.14,0,0,0-2.446-1.778l-4.375-.551.814-4.347a3.141,3.141,0,0,0-.933-2.871l-3.214-3.02,3.214-3.039a3.141,3.141,0,0,0,.933-2.871L10.9,14.99l4.386-.567a3.14,3.14,0,0,0,2.446-1.778l1.886-3.982,3.868,2.114a3.153,3.153,0,0,0,3.025,0l3.862-2.127M19.614,7.075a1.57,1.57,0,0,0-1.421.9l-1.892,4a1.57,1.57,0,0,1-1.218.885L10.7,13.42a1.57,1.57,0,0,0-1.342,1.846l.814,4.347A1.57,1.57,0,0,1,9.7,21.043L6.491,24.082a1.57,1.57,0,0,0,0,2.281L9.7,29.4a1.57,1.57,0,0,1,.464,1.43l-.814,4.347A1.57,1.57,0,0,0,10.7,37.025l4.386.567a1.57,1.57,0,0,1,1.218.885l1.892,4a1.569,1.569,0,0,0,2.172.706l3.88-2.121a1.57,1.57,0,0,1,1.506,0l3.88,2.121a1.569,1.569,0,0,0,2.172-.706l1.892-4a1.57,1.57,0,0,1,1.218-.885l4.386-.567a1.57,1.57,0,0,0,1.342-1.846l-.814-4.347a1.57,1.57,0,0,1,.464-1.429l3.214-3.039a1.57,1.57,0,0,0,0-2.281l-3.213-3.039a1.57,1.57,0,0,1-.464-1.43l.814-4.347A1.57,1.57,0,0,0,39.3,13.42l-4.386-.567a1.57,1.57,0,0,1-1.218-.885l-1.892-4a1.569,1.569,0,0,0-2.172-.706l-3.88,2.121a1.57,1.57,0,0,1-1.506,0l-3.88-2.121a1.562,1.562,0,0,0-.751-.193Z" transform="translate(-6 -7.075)" fill="red"/>
    </g>
    <g id="Group_2611" data-name="Group 2611" transform="translate(14.333 21.823)">
      <g id="Group_2608" data-name="Group 2608">
        <path id="Path_3069" data-name="Path 3069" d="M21.884,25.705h-.863v5.339l-3.572-5.339h-.923v6.8h.863V27.162L20.961,32.5h.923Z" transform="translate(-16.526 -25.705)" fill="red"/>
      </g>
      <g id="Group_2609" data-name="Group 2609" transform="translate(6.888)">
        <path id="Path_3070" data-name="Path 3070" d="M30.144,25.705H25.228v6.8H30.3v-.8H26.127V29.388h3.762v-.8H26.127V26.508h4.017Z" transform="translate(-25.228 -25.705)" fill="red"/>
      </g>
      <g id="Group_2610" data-name="Group 2610" transform="translate(12.588)">
        <path id="Path_3071" data-name="Path 3071" d="M41.172,25.705h-.9L39.2,30.074q-.209.835-.339,1.48a18.235,18.235,0,0,0-.529-2.407l-.974-3.442H36.274L34.98,30.3q-.046.167-.306,1.257-.121-.691-.288-1.391l-1.034-4.457h-.923l1.8,6.8h.918l1.443-5.181q.093-.329.2-.8.032.148.213.8L38.44,32.5h.867l1.865-6.8Z" transform="translate(-32.429 -25.705)" fill="red"/>
      </g>
    </g>
  </g>
</svg>
