<svg xmlns="http://www.w3.org/2000/svg" width="38.778" height="38.778" viewBox="0 0 38.778 38.778">
  <g id="noun-qr-3173169" transform="translate(-0.5 -0.5)">
    <rect id="Rectangle_921" data-name="Rectangle 921" width="1.054" height="1.054" transform="translate(28.842 17.255)"/>
    <rect id="Rectangle_922" data-name="Rectangle 922" width="1.053" height="1.053" transform="translate(22.522 25.683)"/>
    <rect id="Rectangle_923" data-name="Rectangle 923" width="1.052" height="1.053" transform="translate(27.79 16.202)"/>
    <path id="Path_3072" data-name="Path 3072" d="M44.169,48.33V47.276H42.062v2.107h1.054V48.33Z" transform="translate(-16.379 -18.434)"/>
    <rect id="Rectangle_924" data-name="Rectangle 924" width="1.054" height="1.054" transform="translate(18.31 28.842)"/>
    <path id="Path_3073" data-name="Path 3073" d="M26.416,14.246V15.3h1.053v1.054h1.054V15.3h1.053V14.246Z" transform="translate(-10.213 -5.417)"/>
    <path id="Path_3074" data-name="Path 3074" d="M29.576,24.728h1.052V22.622H29.576v-3.16h-3.16v2.106h1.053V20.515h1.054v3.16h1.054Z" transform="translate(-10.213 -7.473)"/>
    <path id="Path_3075" data-name="Path 3075" d="M36.161,25.413V27.52h1.053V26.467h2.107V25.413H38.267V24.36H37.214V21.2H36.161v2.107H35.107v2.106Z" transform="translate(-13.638 -8.158)"/>
    <rect id="Rectangle_925" data-name="Rectangle 925" width="2.106" height="1.053" transform="translate(19.363 19.363)"/>
    <rect id="Rectangle_926" data-name="Rectangle 926" width="1.054" height="1.053" transform="translate(13.042 16.202)"/>
    <path id="Path_3076" data-name="Path 3076" d="M40.323,43.483h3.16v-3.16h-3.16Zm1.054-2.106H42.43V42.43H41.377Z" transform="translate(-15.694 -15.694)"/>
    <rect id="Rectangle_927" data-name="Rectangle 927" width="1.053" height="1.053" transform="translate(19.363 7.776)"/>
    <path id="Path_3077" data-name="Path 3077" d="M17.775,43.8H12.508v5.267h5.267Zm-1.053,4.214h-3.16v-3.16h3.16Z" transform="translate(-4.732 -17.064)"/>
    <rect id="Rectangle_928" data-name="Rectangle 928" width="1.054" height="2.107" transform="translate(30.949 16.202)"/>
    <path id="Path_3078" data-name="Path 3078" d="M43.116,29.207H42.062V30.26h1.054v1.053h1.053v1.052h1.052V30.26H44.169V28.153H43.116Z" transform="translate(-16.379 -10.898)"/>
    <path id="Path_3079" data-name="Path 3079" d="M19.889.5A19.389,19.389,0,1,0,39.278,19.889,19.389,19.389,0,0,0,19.889.5Zm2.633,6.223h1.053V8.829H24.63V9.883H23.576V8.829H22.522Zm-15.8,0H14.1V14.1H6.723Zm0,16.853H8.829v1.054H6.723Zm7.373,9.48H6.723V25.683H14.1Zm18.96,0H32V32h1.052Zm0-14.746H32v1.053h1.052v3.16H32V24.63h1.052v3.16H32V25.683H30.949v1.053H29.9V24.629h1.053V22.522H29.9v1.053H28.843v4.214H29.9v1.053H28.843V29.9h4.214v1.053H30.949V32H29.9v1.053H28.843V30.948H26.737V32H27.79v1.053H25.682V32H24.63v1.053H23.576V32h1.054V30.948H22.522V29.895h2.107V28.841H22.522V27.788H21.469v1.053H20.416V32h1.054v1.053H20.416V32H19.363v1.053H16.2V32h2.107V29.895H16.2v1.053H15.149V29.895H16.2V27.787H15.149v-3.16h4.214V23.574H17.255V22.521H16.2v1.053H15.149V22.521H16.2V21.467h1.054V20.414h1.053V19.361h1.054V17.254H18.308V16.2h-3.16v1.053H14.1v1.054H13.042v1.053h2.107V18.308H16.2V17.254h1.054v1.054H16.2v2.107H11.989v1.052H14.1v1.054H13.042v1.053H14.1v1.054h-3.16V23.574H9.883V22.521h1.053V20.414h1.054V19.361H10.936V17.253H8.829v2.107H9.882v2.106H8.829v1.054H6.723V21.467H8.829V19.361H7.776v1.053H6.723V16.2H7.776v1.053H8.829V15.147H9.883V16.2h1.053v1.053h1.054V15.146H16.2V14.093H15.15V7.776H16.2V6.723H18.31V7.776h1.054V6.723h1.053V7.776H21.47V8.829H20.416V9.882H19.363v2.107h1.053v3.16h1.053V9.883h1.053v1.053h1.053v2.107h1.054v2.107h1.053V16.2h1.054V15.149H32V16.2h1.052V18.31Zm0-4.214H25.683V6.723h7.373Z"/>
    <path id="Path_3080" data-name="Path 3080" d="M12.508,17.775h5.267V12.508H12.508Zm1.054-4.214h3.16v3.16h-3.16Z" transform="translate(-4.732 -4.732)"/>
    <path id="Path_3081" data-name="Path 3081" d="M49.068,12.508H43.8v5.267h5.267Zm-1.054,4.214h-3.16v-3.16h3.16Z" transform="translate(-17.064 -4.732)"/>
    <path id="Path_3082" data-name="Path 3082" d="M36.95,34.791V33.737H35.9V31.631H34.842v1.053H32.736v1.052h1.053v1.054H32.736v1.053H31.682V33.737H27.469v1.054h3.16V36.9H29.576v1.054h-3.16v2.106h1.053V39h1.054v1.053h3.159V37.951h1.054V36.9h1.053V35.844h1.054V34.791H35.9v1.053h3.159V34.791Z" transform="translate(-10.213 -12.268)"/>
    <rect id="Rectangle_929" data-name="Rectangle 929" width="1.054" height="1.054" transform="translate(30.949 21.468)"/>
    <rect id="Rectangle_930" data-name="Rectangle 930" width="1.054" height="1.053" transform="translate(10.936 22.522)"/>
    <rect id="Rectangle_931" data-name="Rectangle 931" width="1.054" height="1.054" transform="translate(28.842 21.468)"/>
    <path id="Path_3083" data-name="Path 3083" d="M50.069,29.893H49.016V32h2.107V30.946H50.069Z" transform="translate(-19.12 -11.583)"/>
  </g>
</svg>
