<svg xmlns="http://www.w3.org/2000/svg" width="251.218" height="140.138" viewBox="0 0 251.218 140.138">
  <g id="Group_2617" data-name="Group 2617" transform="translate(-149.14 -147.61)">
    <path id="Path_3089" data-name="Path 3089" d="M274.5,269A45.5,45.5,0,1,0,229,223.5,45.5,45.5,0,0,0,274.5,269Z" transform="translate(0 -30.39)" fill="#50b748"/>
    <path id="Path_3090" data-name="Path 3090" d="M284.071,267.927q1.309-.254,2.6-.584a45.416,45.416,0,0,0,4.312-1.441q2.121-.82,4.151-1.85a45.5,45.5,0,0,0,3.948-2.264q1.912-1.23,3.7-2.646t3.421-3.007a45.525,45.525,0,0,0,10.207-14.913q.886-2.1,1.562-4.273.576-1.9.986-3.852L291.92,206.066a24.646,24.646,0,1,0-34.849,34.86l27,27Z" transform="translate(0 -32.78)" fill="#10a711"/>
    <path id="Path_3091" data-name="Path 3091" d="M274.505,198.843a24.579,24.579,0,1,1-9.438,1.873A24.576,24.576,0,0,1,274.505,198.843Zm11.223,17.07a1.9,1.9,0,0,0-.985.39l-13.855,10.389-6.42-6.415c-1.391-1.449-4.132,1.289-2.68,2.681l7.583,7.583a1.96,1.96,0,0,0,2.476.178l15.167-11.375a2,2,0,0,0-1.088-3.428c-.065,0-.129,0-.194,0Z" transform="translate(0 -31.794)" fill="#fff"/>
    <path id="Path_3092" data-name="Path 3092" d="M224.3,314.336a7.521,7.521,0,0,1-4.176-1.1,6.026,6.026,0,0,1-2.424-3.048l2.832-1.656a3.774,3.774,0,0,0,3.864,2.568,3.47,3.47,0,0,0,2.016-.48,1.581,1.581,0,0,0-.12-2.664,11.751,11.751,0,0,0-2.832-1.08,12.487,12.487,0,0,1-3.48-1.56,4.034,4.034,0,0,1-1.584-3.456A4.435,4.435,0,0,1,220,298.232a5.833,5.833,0,0,1,3.912-1.368,6.407,6.407,0,0,1,6,3.768l-2.784,1.608a3.354,3.354,0,0,0-3.216-2.16,2.5,2.5,0,0,0-1.608.48,1.436,1.436,0,0,0-.6,1.2,1.57,1.57,0,0,0,.648,1.3,9.707,9.707,0,0,0,2.544,1.056l1.152.384q.312.1,1.08.408a4.67,4.67,0,0,1,1.056.5,4.221,4.221,0,0,1,1.584,1.488,4.422,4.422,0,0,1,.624,2.376,4.491,4.491,0,0,1-1.7,3.7A6.8,6.8,0,0,1,224.3,314.336Zm16.032-5.856V302h3.1v12h-3.1v-1.344a3.961,3.961,0,0,1-3.576,1.68,4.383,4.383,0,0,1-3.264-1.32,5.09,5.09,0,0,1-1.272-3.648V302h3.1v6.984a2.523,2.523,0,0,0,.624,1.824,2.367,2.367,0,0,0,1.752.648,2.5,2.5,0,0,0,1.92-.744A3.147,3.147,0,0,0,240.328,308.48Zm11.644,5.856a6.336,6.336,0,1,1,3.192-11.832,5.585,5.585,0,0,1,2.184,2.256l-2.664,1.56a2.7,2.7,0,0,0-1.1-1.176,3.3,3.3,0,0,0-3.936.5,3.183,3.183,0,0,0-.912,2.352,3.286,3.286,0,0,0,.912,2.352,3.123,3.123,0,0,0,2.3.912,3.3,3.3,0,0,0,1.656-.408,2.7,2.7,0,0,0,1.1-1.176l2.688,1.536a5.83,5.83,0,0,1-2.256,2.28A6.174,6.174,0,0,1,251.972,314.336Zm12.586,0A6.336,6.336,0,1,1,267.75,302.5a5.585,5.585,0,0,1,2.184,2.256l-2.664,1.56a2.7,2.7,0,0,0-1.1-1.176,3.3,3.3,0,0,0-3.936.5,3.183,3.183,0,0,0-.912,2.352,3.286,3.286,0,0,0,.912,2.352,3.123,3.123,0,0,0,2.3.912,3.3,3.3,0,0,0,1.656-.408,2.7,2.7,0,0,0,1.1-1.176l2.688,1.536a5.83,5.83,0,0,1-2.256,2.28A6.174,6.174,0,0,1,264.558,314.336Zm18.538-5.064h-9.048q.6,2.256,3.384,2.256a3.166,3.166,0,0,0,2.688-1.2l2.5,1.44a5.952,5.952,0,0,1-5.232,2.568,6.456,6.456,0,0,1-4.776-1.8,6.15,6.15,0,0,1-1.8-4.536,6.215,6.215,0,0,1,1.776-4.512,6.038,6.038,0,0,1,4.56-1.824,5.636,5.636,0,0,1,4.344,1.824A6.309,6.309,0,0,1,283.216,308,8.536,8.536,0,0,1,283.1,309.272Zm-9.1-2.4h6.12a2.936,2.936,0,0,0-2.976-2.424,3.216,3.216,0,0,0-2.064.648A2.985,2.985,0,0,0,274,306.872Zm13.764-1.464q0,.768,2.184,1.32a9.6,9.6,0,0,1,1.392.408,5.176,5.176,0,0,1,1.248.648,2.8,2.8,0,0,1,1.008,1.1,3.451,3.451,0,0,1,.36,1.608,3.318,3.318,0,0,1-1.392,2.856,5.8,5.8,0,0,1-3.432.984q-3.7,0-5.04-2.856l2.688-1.512a2.249,2.249,0,0,0,2.352,1.56q1.656,0,1.656-1.032,0-.768-2.184-1.32-.816-.216-1.392-.432a7.544,7.544,0,0,1-1.248-.624,3.023,3.023,0,0,1-1.032-1.08,3.445,3.445,0,0,1-.336-1.56,3.331,3.331,0,0,1,1.3-2.784,5.137,5.137,0,0,1,3.264-1.032,5.358,5.358,0,0,1,2.664.672,4.741,4.741,0,0,1,1.9,1.872l-2.64,1.44a1.975,1.975,0,0,0-1.92-1.224,1.7,1.7,0,0,0-1.008.288A.809.809,0,0,0,287.764,305.408Zm10.406,0q0,.768,2.184,1.32a9.6,9.6,0,0,1,1.392.408,5.176,5.176,0,0,1,1.248.648,2.8,2.8,0,0,1,1.008,1.1,3.451,3.451,0,0,1,.36,1.608,3.318,3.318,0,0,1-1.392,2.856,5.8,5.8,0,0,1-3.432.984q-3.7,0-5.04-2.856l2.688-1.512a2.249,2.249,0,0,0,2.352,1.56q1.656,0,1.656-1.032,0-.768-2.184-1.32-.816-.216-1.392-.432a7.544,7.544,0,0,1-1.248-.624,3.023,3.023,0,0,1-1.032-1.08,3.445,3.445,0,0,1-.336-1.56,3.331,3.331,0,0,1,1.3-2.784,5.137,5.137,0,0,1,3.264-1.032,5.358,5.358,0,0,1,2.664.672,4.742,4.742,0,0,1,1.9,1.872l-2.64,1.44a1.975,1.975,0,0,0-1.92-1.224,1.7,1.7,0,0,0-1.008.288A.809.809,0,0,0,298.17,305.408Zm14.5-8.544v2.976q-2.544-.168-2.544,2.04V302h2.544v2.976h-2.544V314h-3.1v-9.024H305.3V302h1.728v-.12a4.98,4.98,0,0,1,1.416-3.864A5.528,5.528,0,0,1,312.669,296.864Zm9.339,11.616V302h3.1v12h-3.1v-1.344a3.961,3.961,0,0,1-3.576,1.68,4.383,4.383,0,0,1-3.264-1.32,5.091,5.091,0,0,1-1.272-3.648V302h3.1v6.984a2.523,2.523,0,0,0,.624,1.824,2.368,2.368,0,0,0,1.752.648,2.5,2.5,0,0,0,1.92-.744A3.147,3.147,0,0,0,322.008,308.48Zm9.027,5.52h-3.1V296.48h3.1Z" transform="translate(0 -45.238)" fill="#222"/>
    <path id="Path_3093" data-name="Path 3093" d="M156.084,324.2h1.106l-3.542,5.782V334h-.98v-4.046L149.14,324.2h1.106l2.926,4.8Zm6.694,8.918a3.771,3.771,0,0,1-5.222,0,3.555,3.555,0,0,1-1.064-2.618,3.51,3.51,0,0,1,1.064-2.6,3.736,3.736,0,0,1,5.222,0,3.492,3.492,0,0,1,1.078,2.6A3.567,3.567,0,0,1,162.778,333.118Zm-4.564-.644a2.806,2.806,0,0,0,3.92,0,2.743,2.743,0,0,0,.8-1.974,2.758,2.758,0,1,0-5.516,0A2.743,2.743,0,0,0,158.214,332.474Zm12.116-1.806V327h.924v7h-.924v-1.092a2.589,2.589,0,0,1-2.352,1.26,2.652,2.652,0,0,1-2-.77,2.929,2.929,0,0,1-.742-2.1V327h.924v4.3a2.034,2.034,0,0,0,.49,1.456,1.883,1.883,0,0,0,1.414.518,2.126,2.126,0,0,0,1.652-.658A2.75,2.75,0,0,0,170.33,330.668Zm9.655-3.836a2.625,2.625,0,0,1,2,.784,2.883,2.883,0,0,1,.742,2.086V334H181.8v-4.3a2,2,0,0,0-.5-1.456,1.838,1.838,0,0,0-1.4-.518,2.17,2.17,0,0,0-1.666.658,2.79,2.79,0,0,0-.6,1.946V334h-.924v-9.8h.924v3.892A2.587,2.587,0,0,1,179.985,326.832Zm10.55,1.54V327h.924v7h-.924v-1.372a3.133,3.133,0,0,1-2.828,1.54,3.493,3.493,0,0,1-2.562-1.064,3.754,3.754,0,0,1,0-5.208,3.493,3.493,0,0,1,2.562-1.064A3.133,3.133,0,0,1,190.535,328.372Zm-4.718,4.1a2.806,2.806,0,0,0,3.92,0,2.743,2.743,0,0,0,.8-1.974,2.758,2.758,0,1,0-5.516,0A2.743,2.743,0,0,0,185.817,332.474Zm10.189.56,2.45-6.034h.98l-2.87,7h-1.12l-2.87-7h.98Zm7.507-6.2a3.122,3.122,0,0,1,2.506,1.106,3.779,3.779,0,0,1,.966,2.59c0,.047-.01.191-.028.434h-6.146a2.536,2.536,0,0,0,.9,1.68,2.852,2.852,0,0,0,1.89.63,2.362,2.362,0,0,0,2.254-1.19l.812.476a3.263,3.263,0,0,1-1.274,1.19,3.818,3.818,0,0,1-1.806.42,3.633,3.633,0,0,1-2.688-1.036,3.863,3.863,0,0,1-.014-5.25A3.51,3.51,0,0,1,203.513,326.832Zm0,.9a2.7,2.7,0,0,0-1.834.644,2.639,2.639,0,0,0-.868,1.694h5.222a2.653,2.653,0,0,0-.854-1.722A2.506,2.506,0,0,0,203.513,327.728Zm9.17,1.106q0,.811,1.442,1.19c.27.065.448.112.532.14s.247.07.49.154a2.571,2.571,0,0,1,.518.2q.153.084.42.266a1.168,1.168,0,0,1,.378.35,2.076,2.076,0,0,1,.21.448,1.655,1.655,0,0,1,.1.574,1.765,1.765,0,0,1-.714,1.456,2.793,2.793,0,0,1-1.82.56,3.2,3.2,0,0,1-1.694-.434,2.459,2.459,0,0,1-1.008-1.176l.784-.462a1.68,1.68,0,0,0,.7.868,2.34,2.34,0,0,0,1.218.308,2.162,2.162,0,0,0,1.162-.28.927.927,0,0,0,.448-.84q0-.812-1.442-1.19l-.532-.126q-.126-.042-.5-.154a3.719,3.719,0,0,1-.518-.21q-.141-.084-.406-.252a1.374,1.374,0,0,1-.378-.35,2.48,2.48,0,0,1-.21-.448,1.753,1.753,0,0,1-.1-.588,1.8,1.8,0,0,1,.672-1.428,2.622,2.622,0,0,1,1.722-.574,2.879,2.879,0,0,1,1.484.378,2.293,2.293,0,0,1,.966,1.05l-.77.448a1.615,1.615,0,0,0-1.68-.98,1.787,1.787,0,0,0-1.05.294A.938.938,0,0,0,212.683,328.834Zm10.489,1.834V327h.924v7h-.924v-1.092a2.589,2.589,0,0,1-2.352,1.26,2.651,2.651,0,0,1-2-.77,2.929,2.929,0,0,1-.742-2.1V327H219v4.3a2.034,2.034,0,0,0,.49,1.456,1.883,1.883,0,0,0,1.414.518,2.127,2.127,0,0,0,1.652-.658A2.754,2.754,0,0,0,223.172,330.668Zm6.14,3.5a3.571,3.571,0,0,1-2.632-1.05,3.613,3.613,0,0,1-1.05-2.618,3.611,3.611,0,0,1,3.682-3.668,3.5,3.5,0,0,1,1.862.5,2.908,2.908,0,0,1,1.2,1.33l-.756.434a2.127,2.127,0,0,0-.91-.994,2.776,2.776,0,0,0-3.36.434,2.664,2.664,0,0,0-.8,1.96,2.743,2.743,0,0,0,.8,1.974,2.812,2.812,0,0,0,3.346.434,2.547,2.547,0,0,0,.98-1.008l.77.448a3.235,3.235,0,0,1-1.274,1.33A3.623,3.623,0,0,1,229.312,334.168Zm7.657,0a3.57,3.57,0,0,1-2.632-1.05,3.613,3.613,0,0,1-1.05-2.618,3.684,3.684,0,0,1,5.544-3.164,2.914,2.914,0,0,1,1.2,1.33l-.756.434a2.132,2.132,0,0,0-.91-.994,2.776,2.776,0,0,0-3.36.434,2.664,2.664,0,0,0-.8,1.96,2.743,2.743,0,0,0,.8,1.974,2.812,2.812,0,0,0,3.346.434,2.554,2.554,0,0,0,.98-1.008l.77.448a3.241,3.241,0,0,1-1.274,1.33A3.625,3.625,0,0,1,236.969,334.168Zm7.628-7.336a3.122,3.122,0,0,1,2.506,1.106,3.779,3.779,0,0,1,.966,2.59c0,.047-.01.191-.028.434H241.9a2.536,2.536,0,0,0,.9,1.68,2.852,2.852,0,0,0,1.89.63,2.362,2.362,0,0,0,2.254-1.19l.812.476a3.263,3.263,0,0,1-1.274,1.19,3.818,3.818,0,0,1-1.806.42,3.633,3.633,0,0,1-2.688-1.036,3.863,3.863,0,0,1-.014-5.25A3.51,3.51,0,0,1,244.6,326.832Zm0,.9a2.7,2.7,0,0,0-1.834.644,2.639,2.639,0,0,0-.868,1.694h5.222a2.653,2.653,0,0,0-.854-1.722A2.506,2.506,0,0,0,244.6,327.728Zm5.4,1.106q0,.811,1.442,1.19.406.1.532.14t.49.154a2.547,2.547,0,0,1,.518.2q.154.084.42.266a1.168,1.168,0,0,1,.378.35,1.984,1.984,0,0,1,.21.448,1.655,1.655,0,0,1,.1.574,1.765,1.765,0,0,1-.714,1.456,2.791,2.791,0,0,1-1.82.56,3.2,3.2,0,0,1-1.694-.434,2.459,2.459,0,0,1-1.008-1.176l.784-.462a1.685,1.685,0,0,0,.7.868,2.34,2.34,0,0,0,1.218.308,2.162,2.162,0,0,0,1.162-.28.925.925,0,0,0,.448-.84q0-.812-1.442-1.19l-.532-.126q-.126-.042-.5-.154a3.773,3.773,0,0,1-.518-.21c-.093-.056-.229-.14-.406-.252a1.4,1.4,0,0,1-.378-.35,2.479,2.479,0,0,1-.21-.448,1.778,1.778,0,0,1-.1-.588,1.8,1.8,0,0,1,.672-1.428,2.626,2.626,0,0,1,1.722-.574,2.876,2.876,0,0,1,1.484.378,2.283,2.283,0,0,1,.966,1.05l-.77.448a1.613,1.613,0,0,0-1.68-.98,1.787,1.787,0,0,0-1.05.294A.938.938,0,0,0,249.993,328.834Zm5.934,0q0,.811,1.442,1.19c.27.065.448.112.532.14s.247.07.49.154a2.571,2.571,0,0,1,.518.2q.153.084.42.266a1.168,1.168,0,0,1,.378.35,2.074,2.074,0,0,1,.21.448,1.655,1.655,0,0,1,.1.574,1.765,1.765,0,0,1-.714,1.456,2.793,2.793,0,0,1-1.82.56,3.2,3.2,0,0,1-1.694-.434,2.459,2.459,0,0,1-1.008-1.176l.784-.462a1.68,1.68,0,0,0,.7.868,2.34,2.34,0,0,0,1.218.308,2.162,2.162,0,0,0,1.162-.28.927.927,0,0,0,.448-.84q0-.812-1.442-1.19l-.532-.126q-.126-.042-.5-.154a3.717,3.717,0,0,1-.518-.21q-.141-.084-.406-.252a1.373,1.373,0,0,1-.378-.35,2.479,2.479,0,0,1-.21-.448,1.753,1.753,0,0,1-.1-.588,1.8,1.8,0,0,1,.672-1.428,2.622,2.622,0,0,1,1.722-.574,2.879,2.879,0,0,1,1.484.378,2.293,2.293,0,0,1,.966,1.05l-.77.448a1.615,1.615,0,0,0-1.68-.98,1.787,1.787,0,0,0-1.05.294A.938.938,0,0,0,255.927,328.834Zm8.992-4.8v.9a2.026,2.026,0,0,0-1.526.35,1.845,1.845,0,0,0-.49,1.442V327h2.016v.9H262.9V334h-.924v-6.1h-1.19V327h1.19v-.28a2.707,2.707,0,0,1,.756-2.086A2.827,2.827,0,0,1,264.919,324.032Zm5.913,6.636V327h.924v7h-.924v-1.092a2.589,2.589,0,0,1-2.352,1.26,2.651,2.651,0,0,1-2-.77,2.929,2.929,0,0,1-.742-2.1V327h.924v4.3a2.034,2.034,0,0,0,.49,1.456,1.883,1.883,0,0,0,1.414.518,2.127,2.127,0,0,0,1.652-.658A2.754,2.754,0,0,0,270.832,330.668Zm3.8,3.332h-.924V323.78h.924Zm2.885,0H276.6V323.78h.924Zm4.733-1.134L284.52,327h.98l-3,7.644a3.7,3.7,0,0,1-1.176,1.638,2.293,2.293,0,0,1-1.652.518v-.868q1.26.154,1.918-1.456l.182-.434L278.64,327h.98Zm15.327-6.034a2.5,2.5,0,0,1,1.9.756,2.855,2.855,0,0,1,.714,2.044V334h-.924v-4.368a2,2,0,0,0-.462-1.4,1.608,1.608,0,0,0-1.246-.5,1.784,1.784,0,0,0-1.428.6,2.68,2.68,0,0,0-.518,1.792V334H294.7v-4.368a2.046,2.046,0,0,0-.434-1.4,1.506,1.506,0,0,0-1.2-.5,1.9,1.9,0,0,0-1.456.616,2.552,2.552,0,0,0-.56,1.778V334h-.924v-7h.924v1.022a2.4,2.4,0,0,1,2.142-1.19,2.158,2.158,0,0,1,2.128,1.274A2.47,2.47,0,0,1,297.579,326.832ZM308,328.372V327h.924v7H308v-1.372a3.133,3.133,0,0,1-2.828,1.54,3.493,3.493,0,0,1-2.562-1.064,3.754,3.754,0,0,1,0-5.208,3.493,3.493,0,0,1,2.562-1.064A3.133,3.133,0,0,1,308,328.372Zm-4.718,4.1a2.806,2.806,0,0,0,3.92,0,2.743,2.743,0,0,0,.8-1.974,2.758,2.758,0,1,0-5.516,0A2.743,2.743,0,0,0,303.286,332.474Zm13.618-4.1V324.2h.924V334H316.9v-1.372a3.132,3.132,0,0,1-2.828,1.54,3.5,3.5,0,0,1-2.562-1.064,3.754,3.754,0,0,1,0-5.208,3.5,3.5,0,0,1,2.562-1.064A3.132,3.132,0,0,1,316.9,328.372Zm-4.718,4.1a2.806,2.806,0,0,0,3.92,0,2.743,2.743,0,0,0,.8-1.974,2.758,2.758,0,1,0-5.516,0A2.743,2.743,0,0,0,312.186,332.474Zm10.833-5.642a3.122,3.122,0,0,1,2.506,1.106,3.779,3.779,0,0,1,.966,2.59c0,.047-.01.191-.028.434h-6.146a2.536,2.536,0,0,0,.9,1.68,2.852,2.852,0,0,0,1.89.63,2.362,2.362,0,0,0,2.254-1.19l.812.476a3.263,3.263,0,0,1-1.274,1.19,3.818,3.818,0,0,1-1.806.42,3.633,3.633,0,0,1-2.688-1.036,3.863,3.863,0,0,1-.014-5.25A3.51,3.51,0,0,1,323.019,326.832Zm0,.9a2.7,2.7,0,0,0-1.834.644,2.639,2.639,0,0,0-.868,1.694h5.222a2.653,2.653,0,0,0-.854-1.722A2.506,2.506,0,0,0,323.019,327.728Zm14.461.644V327h.924v7h-.924v-1.372a3.132,3.132,0,0,1-2.828,1.54,3.5,3.5,0,0,1-2.562-1.064,3.754,3.754,0,0,1,0-5.208,3.5,3.5,0,0,1,2.562-1.064A3.132,3.132,0,0,1,337.48,328.372Zm-4.718,4.1a2.806,2.806,0,0,0,3.92,0,2.743,2.743,0,0,0,.8-1.974,2.758,2.758,0,1,0-5.516,0A2.743,2.743,0,0,0,332.762,332.474Zm14.851-5.642a3.447,3.447,0,0,1,2.548,1.064,3.718,3.718,0,0,1,0,5.208,3.447,3.447,0,0,1-2.548,1.064,3.133,3.133,0,0,1-2.828-1.54V336.8h-.924V327h.924v1.372A3.133,3.133,0,0,1,347.613,326.832Zm-2.03,5.642a2.806,2.806,0,0,0,3.92,0,2.743,2.743,0,0,0,.8-1.974,2.758,2.758,0,1,0-5.516,0A2.743,2.743,0,0,0,345.583,332.474Zm13.2-4.1V327h.924v7h-.924v-1.372a3.132,3.132,0,0,1-2.828,1.54,3.5,3.5,0,0,1-2.562-1.064,3.754,3.754,0,0,1,0-5.208,3.5,3.5,0,0,1,2.562-1.064A3.132,3.132,0,0,1,358.781,328.372Zm-4.718,4.1a2.806,2.806,0,0,0,3.92,0,2.743,2.743,0,0,0,.8-1.974,2.758,2.758,0,1,0-5.516,0A2.743,2.743,0,0,0,354.063,332.474Zm10.371.392L366.7,327h.98l-3,7.644a3.7,3.7,0,0,1-1.176,1.638,2.3,2.3,0,0,1-1.652.518v-.868q1.26.154,1.918-1.456l.182-.434L360.822,327h.98Zm11.826-6.034a2.5,2.5,0,0,1,1.9.756,2.855,2.855,0,0,1,.714,2.044V334h-.924v-4.368a2,2,0,0,0-.462-1.4,1.607,1.607,0,0,0-1.246-.5,1.787,1.787,0,0,0-1.428.6,2.685,2.685,0,0,0-.518,1.792V334h-.924v-4.368a2.041,2.041,0,0,0-.434-1.4,1.5,1.5,0,0,0-1.2-.5,1.9,1.9,0,0,0-1.456.616,2.557,2.557,0,0,0-.56,1.778V334H368.8v-7h.924v1.022a2.4,2.4,0,0,1,2.142-1.19,2.156,2.156,0,0,1,2.128,1.274A2.47,2.47,0,0,1,376.26,326.832Zm7.64,0a3.122,3.122,0,0,1,2.506,1.106,3.779,3.779,0,0,1,.966,2.59c0,.047-.01.191-.028.434H381.2a2.536,2.536,0,0,0,.9,1.68,2.852,2.852,0,0,0,1.89.63,2.362,2.362,0,0,0,2.254-1.19l.812.476a3.263,3.263,0,0,1-1.274,1.19,3.818,3.818,0,0,1-1.806.42,3.633,3.633,0,0,1-2.688-1.036,3.863,3.863,0,0,1-.014-5.25A3.51,3.51,0,0,1,383.9,326.832Zm0,.9a2.7,2.7,0,0,0-1.834.644,2.639,2.639,0,0,0-.868,1.694h5.222a2.653,2.653,0,0,0-.854-1.722A2.506,2.506,0,0,0,383.9,327.728Zm8.217-.9a2.623,2.623,0,0,1,2,.784,2.878,2.878,0,0,1,.742,2.086V334h-.924v-4.3a2,2,0,0,0-.5-1.456,1.835,1.835,0,0,0-1.4-.518,2.171,2.171,0,0,0-1.666.658,2.8,2.8,0,0,0-.6,1.946V334h-.924v-7h.924v1.092A2.589,2.589,0,0,1,392.117,326.832Zm8.241.168v.9h-2.016v4.242a1.233,1.233,0,0,0,.224.826.918.918,0,0,0,.672.252q.448,0,1.12-.028V334a3.45,3.45,0,0,1-2.226-.21,1.8,1.8,0,0,1-.714-1.652V327.9h-1.47V327h1.47v-1.68l.924-.28V327Z" transform="translate(0 -49.06)" fill="rgba(34,34,34,0.8)"/>
  </g>
</svg>
