<svg xmlns="http://www.w3.org/2000/svg" width="33.424" height="33.426" viewBox="0 0 33.424 33.426">
  <g id="Group_2605" data-name="Group 2605" transform="translate(-8.001 -8)">
    <path id="Path_3062" data-name="Path 3062" d="M41.044,31.624l-2.611-2.611a1.305,1.305,0,0,0-1.847,0,1.46,1.46,0,0,0,.382,2.229H33.852V9.306A1.3,1.3,0,0,0,32.547,8H16.879a1.306,1.306,0,0,0-1.306,1.306v6.528H12.459a1.46,1.46,0,0,0,.382-2.229,1.306,1.306,0,0,0-1.847,0L8.383,16.216a1.308,1.308,0,0,0,0,1.847l2.611,2.611a1.305,1.305,0,0,0,1.847,0,1.46,1.46,0,0,0-.382-2.229h3.116V40.12a1.305,1.305,0,0,0,1.306,1.306H32.548a1.306,1.306,0,0,0,1.306-1.306V33.853h3.115c-1.726,1.221-.157,3.528,1.464,2.229l2.611-2.611a1.309,1.309,0,0,0,0-1.847Zm-9.8,7.191H18.185v-28.2H31.242Zm0,0" fill="#7e7e7e"/>
    <path id="Path_3063" data-name="Path 3063" d="M30.317,26.375c-5.148.093-5.147,7.742,0,7.834,5.148-.092,5.147-7.743,0-7.834Zm0,5.223a1.306,1.306,0,0,1,0-2.611,1.306,1.306,0,0,1,0,2.611Zm0,0" transform="translate(-5.604 -5.579)" fill="#7e7e7e"/>
    <path id="Path_3064" data-name="Path 3064" d="M31.417,41a1.306,1.306,0,0,0-1.306,1.306c.127,1.149-.587,3.909,1.306,3.917a1.305,1.305,0,0,0,1.306-1.306c-.127-1.149.587-3.909-1.306-3.917Zm0,0" transform="translate(-6.704 -10.02)" fill="#7e7e7e"/>
    <path id="Path_3065" data-name="Path 3065" d="M31.417,20.723a1.305,1.305,0,0,0,1.306-1.306c-.127-1.148.587-3.909-1.306-3.917a1.306,1.306,0,0,0-1.306,1.306C30.239,17.955,29.525,20.714,31.417,20.723Zm0,0" transform="translate(-6.704 -2.277)" fill="#7e7e7e"/>
  </g>
</svg>
