<svg id="Group_2606" data-name="Group 2606" xmlns="http://www.w3.org/2000/svg" width="35.424" height="35.424" viewBox="0 0 35.424 35.424">
  <path id="Path_3066" data-name="Path 3066" d="M39,27.6a1.513,1.513,0,0,0-1.838-1.251,1.466,1.466,0,0,0-.675.421,1.4,1.4,0,0,0-1.416-.427,1.485,1.485,0,0,0-.78.549,1.369,1.369,0,0,0-1.251-.269,1.432,1.432,0,0,0-.469.235l-1.106-5.126a1.516,1.516,0,0,0-1.842-1.266,1.77,1.77,0,0,0-1.108,2.1l1.628,7.55h0l.5,2.334L27.071,30.75a1.5,1.5,0,0,0-1.986.945,1.84,1.84,0,0,0,.815,2.272s5.189,2.853,5.214,2.885a12.54,12.54,0,0,1,1,2.409l8.863-2.521L39.006,27.6Z" transform="translate(-6.553 -5.308)" fill="none" stroke="#7d7d7d" stroke-linecap="round" stroke-linejoin="round" stroke-width="2"/>
  <path id="Path_3067" data-name="Path 3067" d="M29.708,24.028H27.647V16.284H34.4v7.744H32.937" transform="translate(-7.285 -4.178)" fill="none" stroke="#7d7d7d" stroke-linecap="round" stroke-linejoin="round" stroke-width="2"/>
  <rect id="Rectangle_913" data-name="Rectangle 913" width="6.753" height="7.744" transform="translate(10.681 12.106)" fill="none" stroke="#7d7d7d" stroke-linecap="round" stroke-linejoin="round" stroke-width="2"/>
  <rect id="Rectangle_914" data-name="Rectangle 914" width="6.752" height="7.744" transform="translate(1 12.106)" fill="none" stroke="#7d7d7d" stroke-linecap="round" stroke-linejoin="round" stroke-width="2"/>
  <rect id="Rectangle_915" data-name="Rectangle 915" width="6.753" height="7.746" transform="translate(10.681 23.446)" fill="none" stroke="#7d7d7d" stroke-linecap="round" stroke-linejoin="round" stroke-width="2"/>
  <rect id="Rectangle_916" data-name="Rectangle 916" width="6.752" height="7.746" transform="translate(1 23.446)" fill="none" stroke="#7d7d7d" stroke-linecap="round" stroke-linejoin="round" stroke-width="2"/>
  <rect id="Rectangle_917" data-name="Rectangle 917" width="6.752" height="7.746" transform="translate(20.362 1)" fill="none" stroke="#7d7d7d" stroke-linecap="round" stroke-linejoin="round" stroke-width="2"/>
  <rect id="Rectangle_918" data-name="Rectangle 918" width="6.753" height="7.746" transform="translate(10.681 1)" fill="none" stroke="#7d7d7d" stroke-linecap="round" stroke-linejoin="round" stroke-width="2"/>
  <rect id="Rectangle_919" data-name="Rectangle 919" width="6.752" height="7.746" transform="translate(1 1)" fill="none" stroke="#7d7d7d" stroke-linecap="round" stroke-linejoin="round" stroke-width="2"/>
  <line id="Line_349" data-name="Line 349" x2="21.9" transform="translate(1 34.424)" fill="none" stroke="#7d7d7d" stroke-linecap="round" stroke-linejoin="round" stroke-width="2"/>
  <line id="Line_350" data-name="Line 350" y2="17.629" transform="translate(30.42 1)" fill="none" stroke="#7d7d7d" stroke-linecap="round" stroke-linejoin="round" stroke-width="2"/>
</svg>
